<svg viewBox="0 0 1280 800" xmlns="http://www.w3.org/2000/svg" font-family="Segoe UI, Arial, sans-serif">
  <rect width="1280" height="800" rx="18" fill="#F8F9F9"/>
  <rect x="1" y="1" width="1278" height="798" rx="17" fill="none" stroke="#E2E3E4" stroke-width="2"/>

  <!-- sidebar -->
  <rect x="0" y="0" width="220" height="800" rx="18" fill="#FFFFFF"/>
  <rect x="18" y="0" width="202" height="800" fill="#FFFFFF"/>
  <text x="32" y="48" font-size="20" font-weight="700" fill="#082773">innobox<tspan fill="#14ABE3">.</tspan></text>
  <rect x="32" y="92" width="156" height="34" rx="9" fill="#DCF2FB"/>
  <text x="48" y="114" font-size="13" fill="#082773" font-weight="600">Home</text>
  <text x="48" y="160" font-size="13" fill="#58595B">Challenges</text>
  <text x="48" y="200" font-size="13" fill="#58595B">Leaderboard</text>

  <!-- header -->
  <text x="252" y="70" font-size="11" letter-spacing="2" fill="#0E87B5" font-weight="700">RAISE A CHALLENGE</text>
  <text x="252" y="112" font-size="34" font-weight="700" fill="#082773">New challenge</text>

  <!-- form card -->
  <rect x="252" y="150" width="820" height="590" rx="14" fill="#FFFFFF" stroke="#E2E3E4" stroke-width="2"/>

  <text x="284" y="196" font-size="12" fill="#58595B" letter-spacing="1">TITLE</text>
  <rect x="284" y="208" width="756" height="42" rx="9" fill="#F8F9F9" stroke="#D1D3D4" stroke-width="1.5"/>
  <text x="300" y="235" font-size="14" fill="#1A1A1A">Our onboarding docs are scattered across three tools</text>

  <text x="284" y="284" font-size="12" fill="#58595B" letter-spacing="1">DESCRIPTION</text>
  <rect x="284" y="296" width="756" height="110" rx="9" fill="#F8F9F9" stroke="#D1D3D4" stroke-width="1.5"/>
  <text x="300" y="322" font-size="14" fill="#1A1A1A">New hires bounce between Confluence, SharePoint, and a</text>
  <text x="300" y="344" font-size="14" fill="#1A1A1A">shared drive to find onboarding steps — a single source of</text>
  <text x="300" y="366" font-size="14" fill="#1A1A1A">truth would save everyone time in the first two weeks.</text>

  <text x="284" y="446" font-size="12" fill="#58595B" letter-spacing="1">IMPACT AREA</text>
  <rect x="284" y="458" width="360" height="42" rx="9" fill="#F8F9F9" stroke="#D1D3D4" stroke-width="1.5"/>
  <text x="300" y="485" font-size="14" fill="#1A1A1A">Internal</text>
  <path d="M604 473 l8 8 8-8" stroke="#58595B" stroke-width="2" fill="none" stroke-linecap="round" stroke-linejoin="round"/>

  <text x="680" y="446" font-size="12" fill="#58595B" letter-spacing="1">VISIBILITY</text>
  <rect x="680" y="458" width="130" height="42" rx="21" fill="#DCF2FB"/>
  <text x="702" y="485" font-size="13" fill="#082773" font-weight="600">Org-wide</text>
  <rect x="818" y="458" width="130" height="42" rx="21" fill="#F8F9F9" stroke="#D1D3D4" stroke-width="1.5"/>
  <text x="840" y="485" font-size="13" fill="#58595B">Namespace</text>

  <rect x="284" y="534" width="220" height="46" rx="10" fill="#14ABE3"/>
  <text x="316" y="563" font-size="14" fill="#FFFFFF" font-weight="600">Submit challenge</text>

  <rect x="284" y="610" width="1" height="0"/>
  <text x="284" y="628" font-size="12" fill="#909193">Starts as "Awaiting triage" until an admin reviews it.</text>
</svg>
