<svg viewBox="0 0 1280 800" xmlns="http://www.w3.org/2000/svg" font-family="Segoe UI, Arial, sans-serif">
  <rect width="1280" height="800" rx="18" fill="#F8F9F9"/>
  <rect x="1" y="1" width="1278" height="798" rx="17" fill="none" stroke="#E2E3E4" stroke-width="2"/>

  <rect x="0" y="0" width="220" height="800" rx="18" fill="#FFFFFF"/>
  <rect x="18" y="0" width="202" height="800" fill="#FFFFFF"/>
  <text x="32" y="48" font-size="20" font-weight="700" fill="#082773">innobox<tspan fill="#14ABE3">.</tspan></text>
  <rect x="32" y="92" width="156" height="34" rx="9" fill="#DCF2FB"/>
  <text x="48" y="114" font-size="13" fill="#082773" font-weight="600">Home</text>
  <text x="48" y="160" font-size="13" fill="#58595B">Challenges</text>
  <text x="48" y="200" font-size="13" fill="#58595B">Leaderboard</text>

  <!-- topbar search -->
  <rect x="252" y="26" width="360" height="36" rx="18" fill="#FFFFFF" stroke="#D1D3D4" stroke-width="1.5"/>
  <circle cx="272" cy="44" r="6" fill="none" stroke="#909193" stroke-width="2"/>
  <text x="290" y="49" font-size="12" fill="#909193">Search challenges, solutions, CH-123…</text>

  <text x="252" y="112" font-size="11" letter-spacing="2" fill="#0E87B5" font-weight="700">HOME</text>
  <text x="252" y="150" font-size="30" font-weight="700" fill="#082773">Welcome back, Ada</text>

  <!-- KPI row: challenges -->
  <text x="252" y="196" font-size="12" fill="#58595B" font-weight="600" letter-spacing="1">CHALLENGES</text>
  <g font-size="26" font-weight="700" fill="#082773">
    <rect x="252" y="210" width="188" height="86" rx="12" fill="#FFFFFF" stroke="#E2E3E4" stroke-width="2"/>
    <text x="272" y="252">7</text>
    <rect x="454" y="210" width="188" height="86" rx="12" fill="#FFFFFF" stroke="#E2E3E4" stroke-width="2"/>
    <text x="474" y="252">14</text>
    <rect x="656" y="210" width="188" height="86" rx="12" fill="#FFFFFF" stroke="#E2E3E4" stroke-width="2"/>
    <text x="676" y="252">9</text>
    <rect x="858" y="210" width="188" height="86" rx="12" fill="#FFFFFF" stroke="#E2E3E4" stroke-width="2"/>
    <text x="878" y="252">2</text>
  </g>
  <g font-size="11" fill="#58595B" letter-spacing="0.5">
    <text x="272" y="278">IN REVIEW</text>
    <text x="474" y="278">VALID — OPEN</text>
    <text x="676" y="278">SOLVED</text>
    <text x="878" y="278">REJECTED</text>
  </g>

  <!-- spotlight cards -->
  <text x="252" y="342" font-size="12" fill="#58595B" font-weight="600" letter-spacing="1">MOST RECENTLY IMPLEMENTED</text>
  <rect x="252" y="356" width="394" height="120" rx="14" fill="#FFFFFF" stroke="#E2E3E4" stroke-width="2"/>
  <rect x="276" y="378" width="110" height="26" rx="13" fill="#D9F7EC"/>
  <text x="290" y="396" font-size="12" fill="#049C70" font-weight="700">Implemented</text>
  <text x="276" y="434" font-size="15" fill="#1A1A1A" font-weight="600">Self-service badge printing kiosk</text>
  <text x="276" y="456" font-size="12" fill="#909193">Facilities · shipped last month</text>

  <text x="672" y="342" font-size="12" fill="#58595B" font-weight="600" letter-spacing="1">IN IMPLEMENTATION</text>
  <rect x="672" y="356" width="394" height="120" rx="14" fill="#FFFFFF" stroke="#E2E3E4" stroke-width="2"/>
  <rect x="696" y="378" width="130" height="26" rx="13" fill="#DCF2FB"/>
  <text x="710" y="396" font-size="12" fill="#0E87B5" font-weight="700">In implementation</text>
  <text x="696" y="434" font-size="15" fill="#1A1A1A" font-weight="600">Consolidated onboarding space</text>
  <text x="696" y="456" font-size="12" fill="#909193">Internal · assigned to IT</text>

  <text x="252" y="530" font-size="12" fill="#909193">Browse Challenges to see everything, or check the Leaderboard for top contributors.</text>
</svg>
